<svg width="17" height="14" xmlns="http://www.w3.org/2000/svg"><path d="M16.8 1.79a6.881 6.881 0 0 1-1.98.542A3.452 3.452 0 0 0 16.336.426a6.905 6.905 0 0 1-2.189.836A3.44 3.44 0 0 0 11.631.174c-2.225 0-3.86 2.076-3.358 4.231A9.785 9.785 0 0 1 1.17.805a3.451 3.451 0 0 0 1.066 4.601 3.432 3.432 0 0 1-1.56-.431C.637 6.572 1.782 8.065 3.44 8.398a3.455 3.455 0 0 1-1.557.059 3.45 3.45 0 0 0 3.22 2.393A6.93 6.93 0 0 1 0 12.278a9.757 9.757 0 0 0 5.284 1.548c6.399 0 10.015-5.404 9.796-10.252A7.017 7.017 0 0 0 16.8 1.79z" fill="#FFF"/></svg>